<?xml version="1.0" standalone="no"?>
<!DOCTYPE svg PUBLIC "-//W3C//DTD SVG 20010904//EN"
 "http://www.w3.org/TR/2001/REC-SVG-20010904/DTD/svg10.dtd">
<svg version="1.0" xmlns="http://www.w3.org/2000/svg"
 width="1080.000000pt" height="1080.000000pt" viewBox="0 0 1080.000000 1080.000000"
 preserveAspectRatio="xMidYMid meet">
<metadata>
Created by potrace 1.14, written by Peter Selinger 2001-2017
</metadata>
<g transform="translate(0.000000,1080.000000) scale(0.100000,-0.100000)"
fill="#000000" stroke="none">
<path d="M2040 6770 l0 -660 -1020 0 -1020 0 0 -1020 0 -1020 350 0 350 0 0
670 0 670 670 0 670 0 0 -1020 0 -1020 2030 0 2030 0 0 1020 0 1020 350 0 350
0 0 -1020 0 -1020 2000 0 2000 0 0 2030 0 2030 -2000 0 -2000 0 0 -660 0 -660
-350 0 -350 0 0 660 0 660 -2030 0 -2030 0 0 -660z m3360 -1360 l0 -1340
-1330 0 -1330 0 0 1340 0 1340 1330 0 1330 0 0 -1340z m4760 0 l0 -1340 -1360
0 -1360 0 0 1340 0 1340 1360 0 1360 0 0 -1340z"/>
</g>
</svg>
